<?xml version="1.0" encoding="iso-8859-1"?>
<!-- Generator: Adobe Illustrator 19.0.0, SVG Export Plug-In . SVG Version: 6.00 Build 0)  -->
<svg version="1.1" id="Layer_1" xmlns="http://www.w3.org/2000/svg" xmlns:xlink="http://www.w3.org/1999/xlink" x="0px" y="0px"
	 viewBox="0 0 512 512" style="enable-background:new 0 0 512 512;" xml:space="preserve">
<g>
	<g>
		<path d="M471.272,276.35l-66.78-133.56c-2.829-5.663-8.655-9.229-14.932-9.229H122.439c-6.207,0-12.074,3.516-14.933,9.229
			l-66.78,133.56c-3.181,6.362-1.94,13.93,2.813,18.948L243.71,506.589c0.003,0.003,0.007,0.007,0.01,0.011
			c6.819,7.197,17.787,7.148,24.399,0.168l200.34-211.47C473.289,290.163,474.411,282.628,471.272,276.35z M365.195,166.95
			l-35.862,92.643l-46.321-92.643H365.195z M295.766,267.121h-79.534l39.766-79.534L295.766,267.121z M228.986,166.95
			l-46.321,92.642l-35.861-92.642H228.986z M120.494,191.478l29.281,75.643H82.672C107.119,218.227,95.859,240.748,120.494,191.478z
			 M94.473,300.511H162.7l47.139,121.775C208.279,420.638,95.911,302.029,94.473,300.511z M256,449.039l-57.494-148.528h114.989
			L256,449.039z M391.35,328.141l-89.189,94.144l47.138-121.775h68.227L391.35,328.141z M362.224,267.121l29.281-75.643
			c24.945,49.888,13.166,26.329,37.822,75.643H362.224z"/>
	</g>
</g>
<g>
	<g>
		<path d="M256,0c-9.22,0-16.695,7.475-16.695,16.695v66.78c0,9.22,7.475,16.695,16.695,16.695s16.695-7.475,16.695-16.695v-66.78
			C272.695,7.475,265.22,0,256,0z"/>
	</g>
</g>
<g>
	<g>
		<path d="M167.634,71.67l-33.39-33.39c-6.519-6.52-17.09-6.52-23.61,0c-6.52,6.52-6.52,17.09,0,23.61l33.39,33.39
			c6.519,6.52,17.09,6.521,23.61,0C174.154,88.76,174.154,78.19,167.634,71.67z"/>
	</g>
</g>
<g>
	<g>
		<path d="M401.365,38.279c-6.519-6.52-17.09-6.52-23.61,0l-33.39,33.39c-6.52,6.52-6.52,17.09,0,23.61
			c6.519,6.52,17.091,6.521,23.61,0l33.39-33.39C407.884,55.37,407.884,44.799,401.365,38.279z"/>
	</g>
</g>
<g>
</g>
<g>
</g>
<g>
</g>
<g>
</g>
<g>
</g>
<g>
</g>
<g>
</g>
<g>
</g>
<g>
</g>
<g>
</g>
<g>
</g>
<g>
</g>
<g>
</g>
<g>
</g>
<g>
</g>
</svg>
